<?xml version="1.0" standalone="no"?>
<!DOCTYPE svg PUBLIC "-//W3C//DTD SVG 20010904//EN"
 "http://www.w3.org/TR/2001/REC-SVG-20010904/DTD/svg10.dtd">
<svg version="1.0" xmlns="http://www.w3.org/2000/svg"
 width="260.000000pt" height="260.000000pt" viewBox="0 0 260.000000 260.000000"
 preserveAspectRatio="xMidYMid meet">
<metadata>
Created by potrace 1.11, written by Peter Selinger 2001-2013
</metadata>
<g transform="translate(0.000000,260.000000) scale(0.100000,-0.100000)"
fill="#000000" stroke="none">
<path d="M1 2078 l0 -523 28 95 c133 459 490 796 974 920 l112 29 -557 1 -558
0 1 -522z"/>
<path d="M1850 2575 c47 -13 116 -35 153 -50 l67 -27 0 -189 c0 -104 -2 -189
-3 -189 -2 0 -44 23 -93 50 -188 106 -322 140 -549 140 -154 0 -257 -15 -371
-54 -335 -114 -566 -373 -656 -734 -32 -127 -32 -370 0 -496 123 -489 569
-777 1141 -736 258 18 422 74 632 216 l136 92 -105 -264 -106 -264 -42 -16
c-23 -9 -72 -24 -110 -34 l-69 -19 363 0 362 -1 0 1300 0 1300 -417 -1 -418 0
85 -24z"/>
<path d="M1 518 l-1 -518 518 0 517 1 -105 33 c-249 77 -410 173 -580 345
-170 171 -277 368 -338 616 -7 28 -10 -118 -11 -477z"/>
</g>
</svg>
